<?xml version="1.0"?>
<svg height="512px" style="current" version="1.1" viewBox="0 0 512 512" width="512px" xml:space="preserve" xmlns="http://www.w3.org/2000/svg" xmlns:xlink="http://www.w3.org/1999/xlink" fill="current">
  <g id="_x35_82_x2C__Aid_x2C__band_x2C__bandage_x2C__bandaid_x2C__beauty">
    <g>
      <g>
        <g>
          <path d="M143.21,449.094c-21.369,0-41.459-8.322-56.569-23.432c-31.192-31.192-31.192-81.945,0-113.138L312.916,86.25      c15.11-15.11,35.2-23.431,56.569-23.431c21.368,0,41.458,8.321,56.568,23.431c15.11,15.11,23.432,35.2,23.432,56.569      c0,21.369-8.321,41.459-23.432,56.569L199.779,425.662C184.669,440.771,164.579,449.094,143.21,449.094z M369.485,82.819      c-16.027,0-31.095,6.241-42.427,17.574L100.783,326.667c-23.394,23.394-23.394,61.459,0,84.853      c11.333,11.333,26.4,17.574,42.427,17.574c16.026,0,31.094-6.241,42.426-17.574l226.275-226.274      c11.333-11.332,17.574-26.399,17.574-42.426c0-16.027-6.241-31.094-17.574-42.426C400.579,89.061,385.512,82.819,369.485,82.819      z" />
        </g>
        <g>
          <path d="M185.64,280.1c-2.64,0-5.21-1.069-7.08-2.93c-1.86-1.86-2.92-4.44-2.92-7.07s1.06-5.21,2.92-7.069      c1.87-1.86,4.45-2.931,7.08-2.931c2.63,0,5.21,1.07,7.07,2.931c1.86,1.859,2.93,4.439,2.93,7.069s-1.07,5.21-2.93,7.07      C190.85,279.03,188.27,280.1,185.64,280.1z" />
        </g>
        <g>
          <path d="M242.21,336.67c-2.64,0-5.21-1.07-7.08-2.93c-1.86-1.86-2.92-4.44-2.92-7.07c0-2.64,1.06-5.21,2.92-7.07      c1.87-1.87,4.44-2.93,7.08-2.93c2.63,0,5.2,1.06,7.07,2.93c1.86,1.86,2.93,4.44,2.93,7.07s-1.07,5.21-2.93,7.07      C247.41,335.6,244.84,336.67,242.21,336.67z" />
        </g>
        <g>
          <path d="M213.92,308.38c-2.63,0-5.21-1.07-7.07-2.93c-1.86-1.86-2.93-4.44-2.93-7.07s1.07-5.21,2.93-7.07      c1.86-1.859,4.44-2.93,7.07-2.93s5.21,1.07,7.07,2.93c1.86,1.86,2.93,4.44,2.93,7.07s-1.07,5.21-2.93,7.07      C219.13,307.31,216.55,308.38,213.92,308.38z" />
        </g>
        <g>
          <path d="M220.99,273.03c-2.63,0-5.21-1.07-7.07-2.931c-1.86-1.859-2.93-4.439-2.93-7.069c0-2.631,1.07-5.211,2.93-7.07      c1.86-1.87,4.44-2.93,7.07-2.93s5.21,1.06,7.07,2.93c1.86,1.859,2.93,4.439,2.93,7.07c0,2.63-1.07,5.21-2.93,7.069      C226.2,271.96,223.62,273.03,220.99,273.03z" />
        </g>
        <g>
          <path d="M249.28,301.31c-2.63,0-5.21-1.069-7.08-2.93c-1.86-1.86-2.92-4.44-2.92-7.07s1.06-5.21,2.92-7.069      c1.87-1.86,4.45-2.931,7.08-2.931s5.21,1.07,7.07,2.931c1.86,1.859,2.931,4.439,2.931,7.069s-1.07,5.21-2.931,7.07      C254.49,300.24,251.91,301.31,249.28,301.31z" />
        </g>
        <g>
          <path d="M228.06,237.67c-2.63,0-5.21-1.07-7.07-2.93s-2.93-4.44-2.93-7.07s1.07-5.21,2.93-7.07c1.86-1.86,4.44-2.93,7.07-2.93      c2.64,0,5.21,1.07,7.07,2.93c1.87,1.86,2.93,4.44,2.93,7.07s-1.06,5.21-2.93,7.07C233.27,236.6,230.7,237.67,228.06,237.67z" />
        </g>
        <g>
          <path d="M284.63,294.24c-2.63,0-5.21-1.07-7.07-2.931c-1.859-1.859-2.93-4.439-2.93-7.069c0-2.631,1.07-5.21,2.93-7.07      c1.86-1.86,4.44-2.93,7.07-2.93s5.21,1.069,7.07,2.93c1.859,1.86,2.93,4.439,2.93,7.07c0,2.63-1.07,5.21-2.93,7.069      C289.84,293.17,287.26,294.24,284.63,294.24z" />
        </g>
        <g>
          <path d="M256.35,265.96c-2.63,0-5.21-1.07-7.07-2.93c-1.87-1.87-2.93-4.44-2.93-7.07c0-2.63,1.06-5.21,2.93-7.07      c1.86-1.87,4.43-2.93,7.07-2.93c2.63,0,5.21,1.06,7.07,2.93c1.86,1.86,2.93,4.43,2.93,7.07c0,2.63-1.069,5.21-2.93,7.07      C261.56,264.89,258.979,265.96,256.35,265.96z" />
        </g>
        <g>
          <path d="M263.42,230.6c-2.63,0-5.21-1.07-7.07-2.93c-1.86-1.86-2.93-4.44-2.93-7.07c0-2.63,1.07-5.21,2.93-7.07      c1.86-1.86,4.44-2.93,7.07-2.93s5.21,1.07,7.07,2.93c1.859,1.86,2.93,4.44,2.93,7.07c0,2.63-1.07,5.21-2.93,7.07      C268.63,229.53,266.05,230.6,263.42,230.6z" />
        </g>
        <g>
          <path d="M291.7,258.89c-2.631,0-5.21-1.07-7.07-2.93c-1.86-1.87-2.93-4.44-2.93-7.07c0-2.64,1.069-5.21,2.93-7.08      c1.86-1.86,4.439-2.93,7.07-2.93c2.64,0,5.21,1.07,7.069,2.93c1.87,1.87,2.931,4.44,2.931,7.08c0,2.63-1.061,5.2-2.931,7.07      C296.91,257.819,294.33,258.89,291.7,258.89z" />
        </g>
        <g>
          <path d="M270.49,195.25c-2.631,0-5.21-1.07-7.07-2.93s-2.93-4.44-2.93-7.07c0-2.64,1.069-5.22,2.93-7.08s4.439-2.92,7.07-2.92      c2.63,0,5.21,1.06,7.069,2.92c1.86,1.87,2.931,4.44,2.931,7.08c0,2.63-1.07,5.21-2.931,7.07      C275.7,194.18,273.12,195.25,270.49,195.25z" />
        </g>
        <g>
          <path d="M327.06,251.81c-2.63,0-5.21-1.06-7.069-2.92c-1.86-1.86-2.931-4.44-2.931-7.08c0-2.63,1.07-5.21,2.931-7.07      c1.859-1.86,4.439-2.92,7.069-2.92s5.21,1.06,7.07,2.92c1.86,1.87,2.93,4.44,2.93,7.07c0,2.64-1.069,5.21-2.93,7.08      C332.27,250.75,329.689,251.81,327.06,251.81z" />
        </g>
        <g>
          <path d="M298.77,223.53c-2.63,0-5.2-1.07-7.069-2.93c-1.86-1.86-2.931-4.44-2.931-7.07s1.07-5.21,2.931-7.07      c1.859-1.86,4.439-2.93,7.069-2.93c2.641,0,5.21,1.07,7.08,2.93c1.86,1.86,2.92,4.44,2.92,7.07s-1.06,5.21-2.92,7.07      C303.979,222.46,301.399,223.53,298.77,223.53z" />
        </g>
        <g>
          <path d="M143.21,449.094c-21.369,0-41.459-8.322-56.569-23.432c-31.192-31.192-31.192-81.945,0-113.138L312.916,86.25      c15.11-15.11,35.2-23.431,56.569-23.431c21.368,0,41.458,8.321,56.568,23.431c15.11,15.11,23.432,35.2,23.432,56.569      c0,21.369-8.321,41.459-23.432,56.569L199.779,425.662C184.669,440.771,164.579,449.094,143.21,449.094z M369.485,82.819      c-16.027,0-31.095,6.241-42.427,17.574L100.783,326.667c-23.394,23.394-23.394,61.459,0,84.853      c11.333,11.333,26.4,17.574,42.427,17.574c16.026,0,31.094-6.241,42.426-17.574l226.275-226.274      c11.333-11.332,17.574-26.399,17.574-42.426c0-16.027-6.241-31.094-17.574-42.426C400.579,89.061,385.512,82.819,369.485,82.819      z" />
        </g>
        <g>
          <path d="M185.64,280.1c-2.64,0-5.21-1.069-7.08-2.93c-1.86-1.86-2.92-4.44-2.92-7.07s1.06-5.21,2.92-7.069      c1.87-1.86,4.45-2.931,7.08-2.931c2.63,0,5.21,1.07,7.07,2.931c1.86,1.859,2.93,4.439,2.93,7.069s-1.07,5.21-2.93,7.07      C190.85,279.03,188.27,280.1,185.64,280.1z" />
        </g>
        <g>
          <path d="M242.21,336.67c-2.64,0-5.21-1.07-7.08-2.93c-1.86-1.86-2.92-4.44-2.92-7.07c0-2.64,1.06-5.21,2.92-7.07      c1.87-1.87,4.44-2.93,7.08-2.93c2.63,0,5.2,1.06,7.07,2.93c1.86,1.86,2.93,4.44,2.93,7.07s-1.07,5.21-2.93,7.07      C247.41,335.6,244.84,336.67,242.21,336.67z" />
        </g>
        <g>
          <path d="M213.92,308.38c-2.63,0-5.21-1.07-7.07-2.93c-1.86-1.86-2.93-4.44-2.93-7.07s1.07-5.21,2.93-7.07      c1.86-1.859,4.44-2.93,7.07-2.93s5.21,1.07,7.07,2.93c1.86,1.86,2.93,4.44,2.93,7.07s-1.07,5.21-2.93,7.07      C219.13,307.31,216.55,308.38,213.92,308.38z" />
        </g>
        <g>
          <path d="M220.99,273.03c-2.63,0-5.21-1.07-7.07-2.931c-1.86-1.859-2.93-4.439-2.93-7.069c0-2.631,1.07-5.211,2.93-7.07      c1.86-1.87,4.44-2.93,7.07-2.93s5.21,1.06,7.07,2.93c1.86,1.859,2.93,4.439,2.93,7.07c0,2.63-1.07,5.21-2.93,7.069      C226.2,271.96,223.62,273.03,220.99,273.03z" />
        </g>
        <g>
          <path d="M249.28,301.31c-2.63,0-5.21-1.069-7.08-2.93c-1.86-1.86-2.92-4.44-2.92-7.07s1.06-5.21,2.92-7.069      c1.87-1.86,4.45-2.931,7.08-2.931s5.21,1.07,7.07,2.931c1.86,1.859,2.931,4.439,2.931,7.069s-1.07,5.21-2.931,7.07      C254.49,300.24,251.91,301.31,249.28,301.31z" />
        </g>
        <g>
          <path d="M228.06,237.67c-2.63,0-5.21-1.07-7.07-2.93s-2.93-4.44-2.93-7.07s1.07-5.21,2.93-7.07c1.86-1.86,4.44-2.93,7.07-2.93      c2.64,0,5.21,1.07,7.07,2.93c1.87,1.86,2.93,4.44,2.93,7.07s-1.06,5.21-2.93,7.07C233.27,236.6,230.7,237.67,228.06,237.67z" />
        </g>
        <g>
          <path d="M284.63,294.24c-2.63,0-5.21-1.07-7.07-2.931c-1.859-1.859-2.93-4.439-2.93-7.069c0-2.631,1.07-5.21,2.93-7.07      c1.86-1.86,4.44-2.93,7.07-2.93s5.21,1.069,7.07,2.93c1.859,1.86,2.93,4.439,2.93,7.07c0,2.63-1.07,5.21-2.93,7.069      C289.84,293.17,287.26,294.24,284.63,294.24z" />
        </g>
        <g>
          <path d="M256.35,265.96c-2.63,0-5.21-1.07-7.07-2.93c-1.87-1.87-2.93-4.44-2.93-7.07c0-2.63,1.06-5.21,2.93-7.07      c1.86-1.87,4.43-2.93,7.07-2.93c2.63,0,5.21,1.06,7.07,2.93c1.86,1.86,2.93,4.43,2.93,7.07c0,2.63-1.069,5.21-2.93,7.07      C261.56,264.89,258.979,265.96,256.35,265.96z" />
        </g>
        <g>
          <path d="M263.42,230.6c-2.63,0-5.21-1.07-7.07-2.93c-1.86-1.86-2.93-4.44-2.93-7.07c0-2.63,1.07-5.21,2.93-7.07      c1.86-1.86,4.44-2.93,7.07-2.93s5.21,1.07,7.07,2.93c1.859,1.86,2.93,4.44,2.93,7.07c0,2.63-1.07,5.21-2.93,7.07      C268.63,229.53,266.05,230.6,263.42,230.6z" />
        </g>
        <g>
          <path d="M291.7,258.89c-2.631,0-5.21-1.07-7.07-2.93c-1.86-1.87-2.93-4.44-2.93-7.07c0-2.64,1.069-5.21,2.93-7.08      c1.86-1.86,4.439-2.93,7.07-2.93c2.64,0,5.21,1.07,7.069,2.93c1.87,1.87,2.931,4.44,2.931,7.08c0,2.63-1.061,5.2-2.931,7.07      C296.91,257.819,294.33,258.89,291.7,258.89z" />
        </g>
        <g>
          <path d="M270.49,195.25c-2.631,0-5.21-1.07-7.07-2.93s-2.93-4.44-2.93-7.07c0-2.64,1.069-5.22,2.93-7.08s4.439-2.92,7.07-2.92      c2.63,0,5.21,1.06,7.069,2.92c1.86,1.87,2.931,4.44,2.931,7.08c0,2.63-1.07,5.21-2.931,7.07      C275.7,194.18,273.12,195.25,270.49,195.25z" />
        </g>
        <g>
          <path d="M327.06,251.81c-2.63,0-5.21-1.06-7.069-2.92c-1.86-1.86-2.931-4.44-2.931-7.08c0-2.63,1.07-5.21,2.931-7.07      c1.859-1.86,4.439-2.92,7.069-2.92s5.21,1.06,7.07,2.92c1.86,1.87,2.93,4.44,2.93,7.07c0,2.64-1.069,5.21-2.93,7.08      C332.27,250.75,329.689,251.81,327.06,251.81z" />
        </g>
        <g>
          <path d="M298.77,223.53c-2.63,0-5.2-1.07-7.069-2.93c-1.86-1.86-2.931-4.44-2.931-7.07s1.07-5.21,2.931-7.07      c1.859-1.86,4.439-2.93,7.069-2.93c2.641,0,5.21,1.07,7.08,2.93c1.86,1.86,2.92,4.44,2.92,7.07s-1.06,5.21-2.92,7.07      C303.979,222.46,301.399,223.53,298.77,223.53z" />
        </g>
        <g>
          <path d="M138.21,246.814c-2.559,0-5.118-0.977-7.071-2.929l-44.498-44.498c-31.192-31.192-31.192-81.945,0-113.137      c15.11-15.11,35.2-23.432,56.569-23.432c21.369,0,41.458,8.321,56.568,23.432l44.488,44.488      c0.003,0.003,0.006,0.006,0.009,0.009l19.142,19.142c3.905,3.905,3.905,10.237,0,14.142c-3.904,3.905-10.237,3.905-14.142,0      l-12.071-12.071l-91.924,91.924C143.329,245.838,140.769,246.814,138.21,246.814z M143.21,82.819      c-16.027,0-31.094,6.241-42.427,17.574c-23.394,23.394-23.394,61.459,0,84.853l37.427,37.426l84.853-84.853l-37.426-37.426      C174.304,89.061,159.237,82.819,143.21,82.819z" />
        </g>
        <g>
          <path d="M369.484,449.094c-21.368,0-41.458-8.321-56.568-23.432l-44.497-44.498c-3.905-3.905-3.905-10.237,0-14.143      l91.924-91.923l-12.071-12.071c-3.905-3.905-3.905-10.237,0-14.142c3.906-3.905,10.236-3.905,14.143,0l63.64,63.639      c31.191,31.192,31.191,81.945,0,113.138C410.943,440.772,390.854,449.094,369.484,449.094z M289.632,374.093l37.427,37.427      c11.332,11.333,26.399,17.574,42.426,17.574c16.027,0,31.095-6.241,42.427-17.574c23.395-23.394,23.395-61.459,0-84.853      l-37.427-37.427L289.632,374.093z" />
        </g>
        <g>
          <path d="M157.352,265.956c-2.559,0-5.119-0.976-7.071-2.929l-19.142-19.142c-3.905-3.905-3.905-10.237,0-14.143l98.995-98.995      c3.905-3.904,10.237-3.904,14.143,0l19.142,19.142c3.905,3.905,3.905,10.237,0,14.143l-98.995,98.995      C162.471,264.98,159.911,265.956,157.352,265.956z M152.352,236.814l5,5l84.853-84.853l-5-5L152.352,236.814z" />
        </g>
        <g>
          <path d="M275.49,384.093c-2.56,0-5.118-0.977-7.07-2.929l-19.144-19.142c-1.875-1.875-2.929-4.419-2.929-7.071      s1.054-5.195,2.929-7.071l98.995-98.995c1.876-1.875,4.419-2.929,7.071-2.929l0,0c2.652,0,5.196,1.054,7.071,2.929      l19.142,19.142c3.905,3.905,3.905,10.237,0,14.143l-98.994,98.994C280.608,383.116,278.05,384.093,275.49,384.093z       M270.489,354.951l5.001,5l84.853-84.853l-5-5L270.489,354.951z" />
        </g>
        <g>
          <path d="M237.205,384.093c-2.56,0-5.118-0.976-7.071-2.929l-98.995-98.994c-1.875-1.876-2.929-4.419-2.929-7.071      s1.054-5.195,2.929-7.071l137.28-137.279c3.907-3.905,10.237-3.904,14.143,0l98.994,98.996c3.905,3.905,3.905,10.236,0,14.142      l-137.28,137.279C242.324,383.116,239.764,384.093,237.205,384.093z M152.352,275.099l84.853,84.853l123.138-123.137      l-84.853-84.853L152.352,275.099z" />
        </g>
      </g>
    </g>
  </g>
  <g id="Layer_1" />
</svg>