<?xml version="1.0"?>
<svg style="current" version="1.1" viewBox="0 0 512 512" xml:space="preserve" xmlns="http://www.w3.org/2000/svg" xmlns:xlink="http://www.w3.org/1999/xlink">
  <g id="_x33_6_x2C__healthcare_x2C__medical_x2C__stethoscope">
    <g id="XMLID_4175_">
      <g id="XMLID_4176_">
        <path d="M421,333.5c24.85,0,45,20.15,45,45s-20.15,45-45,45s-45-20.15-45-45     S396.15,333.5,421,333.5z" id="XMLID_4256_" style="fill:#3F4751;" />
        <circle cx="426" cy="103.5" id="XMLID_1029_" r="30" style="fill:#FFD400;" />
        <path d="M91,363.5c13.81,0,25,11.19,25,25s-11.19,25-25,25s-25-11.19-25-25     S77.19,363.5,91,363.5z" id="XMLID_1028_" style="fill:#FFD400;" />
        <circle cx="448.5" cy="206" id="XMLID_1027_" r="7.5" style="fill:#757D8C;" />
        <circle cx="363.5" cy="46" id="XMLID_1026_" r="7.5" style="fill:#757D8C;" />
        <circle cx="363.5" cy="456" id="XMLID_1025_" r="7.5" style="fill:#757D8C;" />
        <circle cx="268.5" cy="376" id="XMLID_1024_" r="7.5" style="fill:#757D8C;" />
        <circle cx="203.5" cy="116" id="XMLID_1023_" r="7.5" style="fill:#757D8C;" />
        <circle cx="153.5" cy="446" id="XMLID_1022_" r="7.5" style="fill:#757D8C;" />
        <circle cx="63.5" cy="291" id="XMLID_1021_" r="7.5" style="fill:#757D8C;" />
        <path d="M302.4,137.23c-2.761,0-5-2.239-5-5V63.2c0-10.863-8.837-19.7-19.7-19.7H266     c-2.761,0-5-2.239-5-5s2.239-5,5-5h11.7c16.376,0,29.7,13.323,29.7,29.7v69.03C307.4,134.991,305.161,137.23,302.4,137.23z" id="XMLID_1020_" style="fill:#D0DCE7;" />
        <path d="M64.6,137.23c-2.761,0-5-2.239-5-5V63.2c0-16.377,13.323-29.7,29.7-29.7H101     c2.761,0,5,2.239,5,5s-2.239,5-5,5H89.3c-10.862,0-19.7,8.837-19.7,19.7v69.03C69.6,134.991,67.361,137.23,64.6,137.23z" id="XMLID_1019_" style="fill:#D0DCE7;" />
        <path d="M254.75,488.5c-42.044,0-76.25-34.206-76.25-76.25V318.5c0-2.762,2.239-5,5-5     s5,2.238,5,5v93.75c0,36.53,29.72,66.25,66.25,66.25c17.694,0,34.331-6.892,46.844-19.405     C314.108,446.581,321,429.944,321,412.25V291c0-28.948,23.551-52.5,52.5-52.5c14.016,0,27.2,5.46,37.124,15.373     C420.54,263.801,426,276.984,426,291v72.5c0,2.762-2.239,5-5,5s-5-2.238-5-5V291c0-11.347-4.42-22.021-12.448-30.057     c-8.032-8.022-18.706-12.443-30.052-12.443c-23.435,0-42.5,19.065-42.5,42.5v121.25c0,20.366-7.932,39.514-22.335,53.915     C294.263,480.568,275.115,488.5,254.75,488.5z" id="XMLID_1018_" style="fill:#D0DCE7;" />
        <path d="M302.4,132.23c10.19-0.48,18.6,7.64,18.6,17.72     c0,68.27-50.01,125.069-115.32,135.7v10.67c0,6.12-2.48,11.67-6.5,15.68c-4.01,4.02-9.56,6.5-15.68,6.5     c-12.25,0-22.18-9.93-22.18-22.18v-10.67C96.01,275.02,46,218.22,46,149.95c0-10.08,8.41-18.2,18.6-17.72     c9.5,0.45,16.85,8.55,16.88,18.06c0.19,56.1,45.88,101.68,102.02,101.68s101.83-45.58,102.02-101.68     C285.55,140.78,292.9,132.68,302.4,132.23z" id="XMLID_1017_" style="fill:#3256C1;" />
        <path d="M116,23.5c8.28,0,15,6.72,15,15s-6.72,15-15,15s-15-6.72-15-15     S107.72,23.5,116,23.5z" id="XMLID_1016_" style="fill:#3256C1;" />
        <path d="M251,23.5c8.28,0,15,6.72,15,15s-6.72,15-15,15c-8.28,0-15-6.72-15-15     S242.72,23.5,251,23.5z" id="XMLID_1015_" style="fill:#3256C1;" />
        <path d="M421,363.5c8.28,0,15,6.72,15,15s-6.72,15-15,15c-8.28,0-15-6.72-15-15     S412.72,363.5,421,363.5z" id="XMLID_1014_" style="fill:#3256C1;" />
      </g>
    </g>
  </g>
  <g id="Layer_1" />
</svg>